# xmcd
#
# Track frame offsets: 
#        150
#        25553
#        36591
#        62571
#        92688
#        117380
#        130592
#        146937
#        168982
#        190967
#        205953
#        219531
#
# Disc length: 3261 seconds
#
# Revision: 1
# Processed by: cddbd v1.5.2PL0 Copyright (c) Steve Scherf et al.
# Submitted via: ExactAudioCopy v1.0b3
#
DISCID=b00cbb0c
DTITLE=Azúcar, tabaco y ron - Son de mi Cuba
DYEAR=2004
DGENRE=Salsa
TTITLE0=Son de la loma
TTITLE1=Convergencias
TTITLE2=Marieta
TTITLE3=Ricon vacilón-Los marcianos-La Batea
TTITLE4=Lágrimas negras
TTITLE5=¿Cómo fue?
TTITLE6=El carretero
TTITLE7=Las maracas de mi Cuba
TTITLE8=¡Qué manera de quererte!
TTITLE9=Chaqui-chaqui
TTITLE10=Ojos Malignos
TTITLE11=Son de mi Cuba
EXTD=
EXTT0=
EXTT1=
EXTT2=
EXTT3=
EXTT4=
EXTT5=
EXTT6=
EXTT7=
EXTT8=
EXTT9=
EXTT10=
EXTT11=
PLAYORDER=
